<svg xmlns="http://www.w3.org/2000/svg" width="25.87" height="24.52" viewBox="0 0 25.87 24.52">
  <path id="Icon_awesome-code" data-name="Icon awesome-code" d="M11.272,24.5l-2.466-.848a.6.6,0,0,1-.331-.714L13.992.418a.48.48,0,0,1,.6-.393L17.06.873a.6.6,0,0,1,.331.714l-5.517,22.52a.478.478,0,0,1-.6.393ZM6.664,19.125,8.423,16.9a.651.651,0,0,0-.032-.824L4.728,12.262,8.39,8.445a.646.646,0,0,0,.032-.824L6.664,5.4a.434.434,0,0,0-.687-.024L.153,11.84a.645.645,0,0,0,0,.838l5.824,6.471a.431.431,0,0,0,.687-.024Zm13.225.029,5.824-6.471a.645.645,0,0,0,0-.838L19.889,5.37a.437.437,0,0,0-.687.024L17.444,7.616a.651.651,0,0,0,.032.824l3.662,3.822-3.662,3.817a.646.646,0,0,0-.032.824L19.2,19.125a.434.434,0,0,0,.687.029Z" transform="translate(0.002 -0.003)" fill="#fff"/>
</svg>
