<svg xmlns="http://www.w3.org/2000/svg" width="46.591" height="48.533" viewBox="0 0 46.591 48.533">
  <path id="Icon_awesome-bootstrap" data-name="Icon awesome-bootstrap" d="M30.4,32.576a4.188,4.188,0,0,1-4.568,4.488H17.419v-8.85h8.412C30.257,28.214,30.4,31.67,30.4,32.576Zm-5.215-7.922c.07,0,4,.108,4-3.934,0-1.681-.365-3.886-4-3.886H17.419v7.82ZM46.591,10.339V42.694a7.956,7.956,0,0,1-7.766,8.089H7.766A7.956,7.956,0,0,1,0,42.694V10.339A7.956,7.956,0,0,1,7.766,2.25h31.06A7.956,7.956,0,0,1,46.591,10.339ZM35.156,33.218c0-2.337-.692-6.315-5.1-7.3v-.079a6.209,6.209,0,0,0,3.883-6.028c0-.758.208-7.018-8.07-7.018H12.661V41.108c13.336,0,14.546.182,17.014-.619a7.2,7.2,0,0,0,5.482-7.271Z" transform="translate(0 -2.25)" fill="#533b78"/>
</svg>
