<svg xmlns="http://www.w3.org/2000/svg" width="50.95" height="53.734" viewBox="0 0 50.95 53.734">
  <path id="Icon_simple-gatsby" data-name="Icon simple-gatsby" d="M25.487.01C11.309.01.01,11.925.01,26.875s11.3,26.869,25.474,26.869S50.961,41.829,50.961,26.877,39.665.01,25.487.01ZM5.548,27.11,25.266,47.9C14.41,47.9,5.548,38.559,5.548,27.11Zm24.37,20.326L5.992,22.2C7.982,12.859,15.96,5.85,25.485,5.85A19.811,19.811,0,0,1,41.657,14.5l-2.878,2.567a15.94,15.94,0,0,0-28.8,3.972L30.8,43a16.377,16.377,0,0,0,10.191-12.15H32.354V26.877H45.426c0,10.046-6.646,18.458-15.508,20.559Z" transform="translate(-0.01 -0.01)" fill="#633194"/>
</svg>
