<svg xmlns="http://www.w3.org/2000/svg" width="90.88" height="167.358" viewBox="0 0 90.88 167.358">
  <g id="freepik--character-3--inject-7" transform="translate(0.472 0.524)">
    <path id="eln272i3uig2p" d="M439.67,328.59c0,1.58-16.27,2.87-36.34,2.87S367,330.17,367,328.59s16.27-2.88,36.33-2.88S439.67,327,439.67,328.59Z" transform="translate(-349.262 -164.626)" fill="#263238"/>
    <path id="els72dtt8ko3q" d="M365.18,176.37s-3.9-2-3.9-5.63,8.53-6.94,15.75-5.93,10.7,9.83,10.12,14.89-.14,8.53,4.63,11.85,13.44,13.59,10,18.79-7.66,6.94-4.48,11,3.76,8.67-.43,11.85A12.82,12.82,0,0,1,383,234.77c-4.77-2.31-9.68-10.7-8.38-16.91s-2.89-24.43-4.05-30.93S368.07,176.66,365.18,176.37Z" transform="translate(-349.262 -164.626)" fill="#263238" stroke="#263238" stroke-linecap="round" stroke-linejoin="round" stroke-width="1"/>
    <path id="el4pq25ctzsoh" d="M370,225.81s-6.65,5.93-9.1,7.66a7.22,7.22,0,0,1-4.92,1.59c-.87,0-3-1-4.19.15s-2.89,4.48-2.46,4.77,4.05-2.32,4.48-2.32,1.59-.14,1.59-.14-3.18,2.31-2.46,2.74,2.61-.86,3.33-1.3a36.345,36.345,0,0,0,3.18-2.89s8.09-4.33,10-4.77,3.62-3.61,3.47-4.62a1.88,1.88,0,0,0-2.92-.87Z" transform="translate(-349.262 -164.626)" fill="#fff" stroke="#263238" stroke-linecap="round" stroke-linejoin="round" stroke-width="1"/>
    <path id="elgp5l90ot11b" d="M368.07,190a9.07,9.07,0,0,1,1.93,5c0,2.75-4.19,7.81-5.64,12.14s-.28,7.23.87,8.82,3.18,4.19,3.33,5.64.72,4,.72,4,4.91,1.45,14.6-2.45c0,0,1-22.26.72-25.15s-4.19-4.77-6.07-5.06-4.05-1.45-4.77-2.89a13.55,13.55,0,0,1-1-2.75Z" transform="translate(-349.262 -164.626)" fill="#e51983" stroke="#263238" stroke-linecap="round" stroke-linejoin="round" stroke-width="1"/>
    <path id="elcku6qkl381k" d="M377.37,192.73a6.27,6.27,0,0,1-3.66-2.62,13.548,13.548,0,0,1-1-2.75l-4.63,2.6A9.07,9.07,0,0,1,370,195c0,1.25-.87,3-1.95,4.91.84,1.82,2.41,3.77,4.94,1.93S376.76,195.76,377.37,192.73Z" transform="translate(-349.262 -164.626)" fill="#fff" stroke="#263238" stroke-linecap="round" stroke-linejoin="round" stroke-width="1"/>
    <path id="elcsuxxxpj1" d="M367.84,170.53s-3,2.44-3.56,4.55-2.4,7-2,8.79.7,7.2,2.81,7.72,8.77-3.68,9.82-5.61,1.93-6.85-.35-11.59S368.72,168.78,367.84,170.53Z" transform="translate(-349.262 -164.626)" fill="#fff" stroke="#263238" stroke-linecap="round" stroke-linejoin="round" stroke-width="1"/>
    <path id="el0l9coihye1r" d="M367.14,168.78s4.21,4,4.74,9.3-1.58,11,3,14.92,12.11-.53,12.11-.53a15.56,15.56,0,0,1-5.79-9.48c-.88-6-2.28-11.41-5.09-13.16S368.19,168.07,367.14,168.78Z" transform="translate(-349.262 -164.626)" fill="#263238" stroke="#263238" stroke-linecap="round" stroke-linejoin="round" stroke-width="1"/>
    <path id="el6bw078ni4d3" d="M425,266.57s4.77-2.74,5.34-2.45,6.07,7.51,6.22,8.23-.87,1.16-1.45.87-5.2-3.61-6.36-3.76-3-.57-3-.57Z" transform="translate(-349.262 -164.626)" fill="#e51983" stroke="#263238" stroke-linecap="round" stroke-linejoin="round" stroke-width="1"/>
    <path id="eln52ifki3r1" d="M377,318.61a19.568,19.568,0,0,1-1,5.06c-.72,1.45-3.32,3.9-3.32,4.48s.43.72,1.15.72a9.19,9.19,0,0,0,4.92-2.31,16.082,16.082,0,0,0,2-3.47c.44-.58,2.17-1.3,2.32-2.6s-1.74-3.47-1.74-3.47Z" transform="translate(-349.262 -164.626)" fill="#e51983" stroke="#263238" stroke-linecap="round" stroke-linejoin="round" stroke-width="1"/>
    <path id="el3wl6tecapjn" d="M369.23,225.66s-3.47,21.69-3,33.4,6.65,40.47,8.1,46.54,2.74,13,2.74,13l4.34-1.59s1.3-14.31.15-23.27-2.75-22.41-2.32-26.74.44-11,.44-11,5.92,20.09,8.38,24.29,3.76,4.62,5.64,4.48,19.08-8.39,21.54-9.83,10.55-6.07,10.55-6.07l-.72-2.32s-12,3.33-16.77,4.92-11.57,3.61-11.57,3.61-1.3-16.33-2.89-25.58-7.8-24.29-10-26.31C383.83,223.21,379.06,226,369.23,225.66Z" transform="translate(-349.262 -164.626)" fill="#263238" stroke="#263238" stroke-linecap="round" stroke-linejoin="round" stroke-width="1"/>
    <line id="el2kw2468o4uw" x1="3.5" y1="13.08" transform="translate(27.088 79.034)" fill="none" stroke="#fff" stroke-linecap="round" stroke-linejoin="round" stroke-width="1"/>
    <path id="eluu71da7e6wc" d="M379.05,197a8.31,8.31,0,0,0-.86,6c.86,3.2,6.4,19.41,6.4,19.41s-6.18,4.05-9.59,6.39a80.3,80.3,0,0,1-8.74,4.9,4.29,4.29,0,0,0-3.42,0c-1.49.86-4.47,4.48-3.83,4.91s3.62-1.92,3.62-1.92a38.692,38.692,0,0,0,4.05.43c1.28,0,3.63-2.14,3.63-2.14s20.25-9.59,20.89-9.59S384.38,198,384.38,198s-1.28-2.13-3.2-2.34" transform="translate(-349.262 -164.626)" fill="#e51983" stroke="#263238" stroke-linecap="round" stroke-linejoin="round" stroke-width="1"/>
    <path id="elebvoeta9o26" d="M389.78,218.51l-6,1.33c.51,1.52.85,2.51.85,2.51s-6.18,4.05-9.59,6.39a80.287,80.287,0,0,1-8.74,4.9,4.29,4.29,0,0,0-3.42,0c-1.49.86-4.47,4.48-3.83,4.91s3.62-1.92,3.62-1.92a38.688,38.688,0,0,0,4.05.43c1.28,0,3.63-2.14,3.63-2.14s20.25-9.59,20.89-9.59C391.41,225.33,390.75,222.42,389.78,218.51Z" transform="translate(-349.262 -164.626)" fill="#fff" stroke="#263238" stroke-linecap="round" stroke-linejoin="round" stroke-width="1"/>
  </g>
</svg>
