<svg xmlns="http://www.w3.org/2000/svg" width="55.436" height="53.588" viewBox="0 0 55.436 53.588">
  <path id="Icon_awesome-git-alt" data-name="Icon awesome-git-alt" d="M54.391,26.658l-24.2-23.4a3.66,3.66,0,0,0-5.05,0l-5.031,4.86,6.375,6.163a4.171,4.171,0,0,1,5.369,5.225L38,25.449c4.236-1.411,7.571,3.708,4.389,6.781-3.278,3.169-8.688-.343-6.93-4.467l-5.735-5.537V36.8a4.026,4.026,0,0,1,1.124,6.579,4.354,4.354,0,0,1-6.008,0,4.041,4.041,0,0,1,1.392-6.7V21.969a4.053,4.053,0,0,1-2.307-5.383L17.642,10.5,1.046,26.549a3.371,3.371,0,0,0,0,4.882l24.205,23.4a3.659,3.659,0,0,0,5.049,0L54.391,31.54a3.371,3.371,0,0,0,0-4.882Z" transform="translate(0 -2.25)" fill="#eb4d28"/>
</svg>
