<svg xmlns="http://www.w3.org/2000/svg" width="48.785" height="52.153" viewBox="0 0 48.785 52.153">
  <path id="Icon_simple-graphql" data-name="Icon simple-graphql" d="M31.057,5.978l11.271,6.193A5.075,5.075,0,0,1,49.253,12a4.714,4.714,0,0,1,.861,1.037A4.543,4.543,0,0,1,48.3,19.4a5.009,5.009,0,0,1-1.274.485V32.272a4.627,4.627,0,0,1,3.609,5.583,4.509,4.509,0,0,1-.53,1.263,5.034,5.034,0,0,1-6.685,1.7,4.822,4.822,0,0,1-1.2-.932l-11.2,6.154a4.606,4.606,0,0,1-3.108,5.88,5.14,5.14,0,0,1-1.53.235,4.769,4.769,0,0,1-4.888-4.642,4.443,4.443,0,0,1,.2-1.323L10.412,40a5.067,5.067,0,0,1-6.911.152,4.5,4.5,0,0,1-.16-6.576,4.958,4.958,0,0,1,2.384-1.31l0-12.384a4.647,4.647,0,0,1-3.611-5.615,4.526,4.526,0,0,1,.512-1.23,5.032,5.032,0,0,1,6.685-1.7,4.727,4.727,0,0,1,1.1.819L21.688,5.965A4.613,4.613,0,0,1,24.979.191,5.1,5.1,0,0,1,26.373,0,4.767,4.767,0,0,1,31.26,4.637,4.444,4.444,0,0,1,31.057,5.978ZM29.881,7.884a1.771,1.771,0,0,1-.132.126L44.5,32.326c.059-.02.128-.035.187-.05v-12.4a4.63,4.63,0,0,1-3.558-5.624c.014-.052.027-.106.043-.156l-11.3-6.211Zm-6.886.128-.137-.13-11.3,6.2a4.614,4.614,0,0,1-3.337,5.748c-.059.017-.116.03-.174.046v12.4l.192.05L23,8.01l0,0Zm4.741,1.1a5.167,5.167,0,0,1-2.722,0L10.259,33.428a4.666,4.666,0,0,1,1.37,2.262H41.118a4.628,4.628,0,0,1,1.377-2.269L27.736,9.114Zm2.252,35.262,11.221-6.167c-.034-.1-.062-.2-.087-.309h-29.5l-.048.18,11.28,6.2a5.068,5.068,0,0,1,7.133.1Z" transform="translate(-1.98)" fill="#de33a6"/>
</svg>
