<svg xmlns="http://www.w3.org/2000/svg" width="74.47" height="204.348" viewBox="0 0 74.47 204.348">
  <g id="freepik--character-1--inject-7" transform="translate(0 0.503)">
    <path id="elzfort5w0s5l" d="M167.67,441.25c0,1.59-16.27,2.88-36.34,2.88S95,442.84,95,441.25s16.27-2.87,36.33-2.87S167.67,439.67,167.67,441.25Z" transform="translate(-95 -240.285)" fill="#263238"/>
    <path id="eldv8ry3brxtq" d="M110.3,433.52l6.99,5.9v1.31H104.4l.9-6.33Z" transform="translate(-95 -240.285)" fill="#e51983" stroke="#263238" stroke-linecap="round" stroke-linejoin="round" stroke-width="1"/>
    <path id="elp4dkl5p7v1" d="M126.41,279.47s.85-1.7,1.56-.14a7.51,7.51,0,0,1,.14,5c-.43.71-2.13,1.7-2.13,1S126.41,279.47,126.41,279.47Z" transform="translate(-95 -240.285)" fill="#fff" stroke="#263238" stroke-linecap="round" stroke-linejoin="round" stroke-width="1"/>
    <path id="elt3gzcctmc6" d="M112.68,282.78s-1.29-1.4-1.53.29a7.44,7.44,0,0,0,1.25,4.81c.6.56,2.51,1,2.32.36S112.68,282.78,112.68,282.78Z" transform="translate(-95 -240.285)" fill="#fff" stroke="#263238" stroke-linecap="round" stroke-linejoin="round" stroke-width="1"/>
    <path id="el9i1wmze3m9t" d="M117.58,296.86c2,0,6.59-.33,6.59-.33l11.31-4.9,9.79-13.34,4.9-26.68a33.328,33.328,0,0,1-2.08-4.51,15.618,15.618,0,0,1,.6-4s.61-1.41.81-.2a14,14,0,0,1,0,3l.61,1a46.439,46.439,0,0,1,1.61-5.85c.61-1.21,2-.81,2,0s.61,2.83.81,4.44-2,6.8-2,6.8l-.67,28.54s-14.19,22.8-15,23.64-.68,18.24-.84,20.94,1,7.77.67,8.78-1.86,3.72-6.92,4.9-14.36.34-15.37-.84-1-4.56-1-4.56-5.11-15.14-5.11-16.5c0-.79-1.34-6.43-2.45-10.95a6.43,6.43,0,0,1,4.37-7.67,51,51,0,0,1,7.37-1.71Z" transform="translate(-95 -240.285)" fill="#fff" stroke="#263238" stroke-linecap="round" stroke-linejoin="round" stroke-width="1"/>
    <path id="elknx3fkopzm" d="M124.17,296.53l11.31-4.9,9.79-13.34,4.16-22.62,3,.09-.59,25.06s-14.19,22.8-15,23.64-.68,18.24-.84,20.94,1,7.77.67,8.78-1.86,3.72-6.92,4.9-14.36.34-15.37-.84-1-4.56-1-4.56-5.11-15.14-5.11-16.5c0-.78-1.31-6.3-2.41-10.79a6.6,6.6,0,0,1,4.48-7.88,50.208,50.208,0,0,1,7.26-1.65C119.61,296.86,124.17,296.53,124.17,296.53Z" transform="translate(-95 -240.285)" fill="#e51983" stroke="#263238" stroke-linecap="round" stroke-linejoin="round" stroke-width="1"/>
    <path id="elhlfunhl18z" d="M123.49,292.47a34.739,34.739,0,0,1,3.55,2.2c.5.51,3,9.12,3,9.12l-5.41-3-5.91,4.73s-2.19-6.42-2-8.78a5.81,5.81,0,0,1,2.36-3.89Z" transform="translate(-95 -240.285)" fill="#fff" stroke="#263238" stroke-linecap="round" stroke-linejoin="round" stroke-width="1"/>
    <path id="el8p7c6le634q" d="M124.17,291.8l.16,13.34-6.07-12.16Z" transform="translate(-95 -240.285)" fill="#fff" stroke="#263238" stroke-linecap="round" stroke-linejoin="round" stroke-width="1"/>
    <path id="elrn4ewhfwi7" d="M112.79,283.7c.91,5.23,5.25,11.89,9,11.23s5.6-8.41,4.69-13.64-4.74-8.92-8.53-8.25S111.87,278.47,112.79,283.7Z" transform="translate(-95 -240.285)" fill="#fff" stroke="#263238" stroke-linecap="round" stroke-linejoin="round" stroke-width="1"/>
    <path id="elrh3l8ntsizk" d="M126.77,282.67s-1.5.47-1.29-.09a6,6,0,0,0-.41-2.33,2.5,2.5,0,0,1-1-.95c-.44-.72.14-1.94,0-2.87s-4.64,1.77-5.42,1.91-5.31-.19-5.31-.19,1.27,2.65.86,3.05-.48,1.84-.48,1.84a14.73,14.73,0,0,1,.83,2.89c-.08.49-1,1-1.19.53s-.94-4.47-.94-4.47-1.06.34-1.44-1.83,0-7.2,2-8.51,7-2.18,9.18-1.45,4.47,5.46,4.31,7.24a32.68,32.68,0,0,0,.3,5.23Z" transform="translate(-95 -240.285)" fill="#263238" stroke="#263238" stroke-linecap="round" stroke-linejoin="round" stroke-width="1"/>
    <path id="el1oha0izbc7t" d="M117.29,439.42v1.31H104.4l.27-1.89h11.94Z" transform="translate(-95 -240.285)" fill="#fff" stroke="#263238" stroke-linecap="round" stroke-linejoin="round" stroke-width="1"/>
    <path id="elud0awm702q" d="M141.63,432.99l8.16,6.43v1.31h-13.7l.9-7.54Z" transform="translate(-95 -240.285)" fill="#e51983" stroke="#263238" stroke-linecap="round" stroke-linejoin="round" stroke-width="1"/>
    <path id="elz6zxmxqlu5" d="M149.79,439.42v1.31h-13.7l.27-1.89H149.1Z" transform="translate(-95 -240.285)" fill="#fff" stroke="#263238" stroke-linecap="round" stroke-linejoin="round" stroke-width="1"/>
    <path id="elzuxeju7ly6l" d="M136.66,334.18s4.36,21.91,5.58,30.59,2.22,32.49,2.22,41.17S141.63,433,141.63,433l-4.64.2s-4-48-5.25-51.67-4-14.13-4-14.13-3.23,26-3.63,29.07S110.14,434,110.14,434l-4.84.4s7.87-38.35,8.07-41-1.61-39.16-.6-45.62,1.61-10.69,1.61-10.69S128.67,339.12,136.66,334.18Z" transform="translate(-95 -240.285)" fill="#263238" stroke="#263238" stroke-linecap="round" stroke-linejoin="round" stroke-width="1"/>
    <line id="elc3mr8nnqt3c" y1="12.92" x2="1.42" transform="translate(32.7 114.185)" fill="none" stroke="#fff" stroke-linecap="round" stroke-linejoin="round" stroke-width="1"/>
    <path id="elz4papqyyzc" d="M108.43,301.29s-3.67,3.24-1.23,7.51c1.65,2.87,17,24.82,19.5,25.51s31.14.16,31.14.16l6.32-.35,4.81-2.76-6.35-.19s4-2.15,2.09-2.05-8.07,3.49-8.07,3.49l-26.73-4.82L119.45,308.3" transform="translate(-95 -240.285)" fill="#e51983" stroke="#263238" stroke-linecap="round" stroke-linejoin="round" stroke-width="1"/>
    <path id="el2ytpp1ifq0b" d="M164.71,329.12c-1.93.11-8.07,3.49-8.07,3.49l-.56-.1.11,2h1.65l6.32-.35,4.81-2.76-6.35-.19S166.63,329,164.71,329.12Z" transform="translate(-95 -240.285)" fill="#fff" stroke="#263238" stroke-linecap="round" stroke-linejoin="round" stroke-width="1"/>
  </g>
</svg>
