<svg xmlns="http://www.w3.org/2000/svg" width="51.395" height="48.853" viewBox="0 0 51.395 48.853">
  <path id="Icon_simple-javascript" data-name="Icon simple-javascript" d="M0,0H51.4V48.853H0ZM47.185,37.2c-.375-2.229-1.9-4.1-6.431-5.848-1.576-.7-3.328-1.191-3.848-2.321a2.291,2.291,0,0,1-.1-1.435c.321-1.315,1.959-1.71,3.244-1.343a3.427,3.427,0,0,1,2.09,1.832c2.214-1.376,2.214-1.376,3.758-2.29a8.462,8.462,0,0,0-1.255-1.588c-1.349-1.435-3.146-2.168-6.069-2.1l-1.51.181A6.982,6.982,0,0,0,33.4,24.331a6.181,6.181,0,0,0,1.218,9.1c2.923,2.076,7.2,2.532,7.744,4.488.514,2.382-1.863,3.145-4.21,2.87A5.615,5.615,0,0,1,34.4,38.071L30.479,40.21a8.265,8.265,0,0,0,1.735,2.257c3.726,3.574,13.042,3.391,14.714-2.044a6.566,6.566,0,0,0,.158-3.359l.1.136ZM27.948,22.454H23.134c0,3.945-.019,7.865-.019,11.816,0,2.508.135,4.81-.3,5.518-.707,1.4-2.527,1.223-3.354.977a4.028,4.028,0,0,1-1.777-1.74,1.743,1.743,0,0,0-.272-.4l-3.908,2.29A7.326,7.326,0,0,0,16.344,44a9.857,9.857,0,0,0,6.868.824,5.976,5.976,0,0,0,3.878-2.872c1.092-1.893.861-4.214.85-6.811.026-4.181,0-8.364,0-12.578l.009-.114Z" fill="#efd81d"/>
</svg>
