<svg xmlns="http://www.w3.org/2000/svg" width="74.439" height="73.71" viewBox="0 0 74.439 73.71">
  <path id="Icon_simple-jquery" data-name="Icon simple-jquery" d="M3.7,13.994c-5.134,7.491-4.5,17.234-.573,25.189.089.194.189.378.285.562a3.983,3.983,0,0,0,.186.366,2.082,2.082,0,0,0,.114.2c.063.128.131.251.2.373l.38.651c.07.12.138.238.218.359.133.231.29.459.428.69.063.1.121.192.191.287q.352.561.75,1.09c.189.263.377.518.58.774.065.093.138.187.206.28l.534.661c.065.076.131.165.2.243.237.29.489.572.74.857,0,0,.007.01.012.017a7.636,7.636,0,0,0,1.025,1.081c.193.2.387.4.592.6l.244.238c.268.255.537.511.82.756,0,0,.007,0,.012.007l.138.123c.247.219.5.437.75.639l.3.258c.206.167.418.327.629.491l.329.255c.225.172.464.341.694.508.085.061.169.123.256.179l.07.056.68.454.29.2c.355.231.709.449,1.059.666.1.052.2.108.3.167.261.152.532.307.8.449.145.084.3.155.445.231.181.1.37.2.563.307a.776.776,0,0,1,.135.056c.08.037.155.076.232.115.29.147.593.287.907.427a1.955,1.955,0,0,1,.184.084c.348.155.7.3,1.057.447.082.025.169.066.254.1.326.125.663.253.994.373l.121.044c.37.128.735.251,1.11.368.087.025.177.056.268.081a11.622,11.622,0,0,0,1.144.334C49.359,61.282,56.57,41.538,56.57,41.538c-6.058,8.012-16.808,10.124-26.989,7.773-.377-.088-.755-.211-1.134-.324q-.69-.207-1.371-.445l-.15-.059c-.329-.113-.646-.238-.967-.363q-.131-.055-.266-.1c-.355-.145-.7-.295-1.045-.449-.075-.025-.138-.059-.213-.088q-.438-.2-.873-.418c-.089-.039-.169-.081-.256-.128-.227-.108-.455-.231-.677-.349q-.229-.112-.452-.236c-.273-.147-.547-.307-.82-.459-.082-.059-.177-.108-.271-.162q-.535-.322-1.059-.661-.146-.092-.285-.194-.385-.241-.755-.506c-.085-.056-.162-.118-.249-.179q-.36-.253-.711-.521c-.1-.083-.21-.162-.319-.246-.213-.169-.428-.332-.641-.511l-.285-.231q-.411-.337-.808-.69a.626.626,0,0,0-.089-.074l-.839-.776-.242-.231c-.2-.2-.4-.4-.6-.6l-.235-.246q-.383-.387-.747-.793l-.036-.039c-.256-.285-.505-.575-.757-.869-.065-.076-.126-.157-.193-.238l-.547-.68q-.418-.545-.822-1.1c-5.647-7.83-7.69-18.636-3.17-27.5M19.63,7.684c-3.722,5.425-3.511,12.68-.614,18.418a22.425,22.425,0,0,0,1.637,2.78A12.992,12.992,0,0,0,22.568,31.3c.259.3.539.589.832.882l.218.221q.414.405.846.8l.036.032q.489.434,1,.84c.082.056.152.123.232.179.339.265.68.521,1.033.774l.036.022c.15.111.31.211.479.319.068.044.145.1.218.147.256.167.508.324.767.484.041.017.077.039.116.056.218.135.455.265.682.386.08.049.157.086.239.133.162.081.322.167.476.251l.077.034c.326.162.66.314.987.467.082.032.152.059.222.093.268.118.542.231.81.336.121.042.235.091.348.128.247.093.505.179.75.265l.339.111a8.088,8.088,0,0,0,1.083.317C53.55,41.8,57.985,26.821,57.985,26.821c-3.993,5.836-11.719,8.616-19.954,6.445q-.546-.144-1.083-.319c-.116-.032-.218-.069-.329-.1-.252-.088-.51-.174-.755-.268l-.348-.133c-.271-.111-.547-.214-.81-.332-.082-.037-.157-.061-.22-.1-.339-.155-.68-.307-1.008-.472l-.5-.263-.288-.147c-.222-.118-.428-.241-.641-.368a1.494,1.494,0,0,1-.15-.084c-.256-.162-.522-.319-.767-.486-.082-.047-.157-.1-.235-.152l-.5-.334c-.348-.246-.689-.511-1.033-.766-.077-.071-.152-.13-.227-.194A23.353,23.353,0,0,1,21.306,17.43a17.83,17.83,0,0,1,1.352-14.1m10.368-.361a11.49,11.49,0,0,0-.895,10.942,15.3,15.3,0,0,0,8.716,8.265c.157.061.31.113.472.172l.213.066c.222.071.447.155.677.206C52.79,24.69,55.654,17.1,56.425,15.983c-2.52,3.674-6.745,4.556-11.927,3.276a11.583,11.583,0,0,1-1.248-.393,15.211,15.211,0,0,1-1.492-.624,15.728,15.728,0,0,1-2.612-1.621C34.5,13.05,31.627,6.233,34.655.679" transform="translate(20.549 -0.64) rotate(21)" fill="#1065a9"/>
</svg>
